<svg width="24" height="24" viewBox="0 0 24 24" fill="none" xmlns="http://www.w3.org/2000/svg">
<path d="M8.25 14.25V15.75H3.75V14.25H5.25V10.5H3.75V9H5.25V8.25H6.75V14.25H8.25ZM14.25 14.25H11.25V12.75H12.75C13.5773 12.75 14.25 12.0773 14.25 11.25V9.75C14.25 8.92275 13.5773 8.25 12.75 8.25H9.75V9.75H12.75V11.25H11.25C10.4227 11.25 9.75 11.9227 9.75 12.75V15.75H14.25V14.25ZM18.75 8.25H15.75V9.75H18.75V11.25H16.5V12.75H18.75V14.25H15.75V15.75H18.75C19.5772 15.75 20.25 15.0773 20.25 14.25V9.75C20.25 8.92275 19.5772 8.25 18.75 8.25ZM1.5 3V6H3V3H6V1.5H3C2.60218 1.5 2.22064 1.65804 1.93934 1.93934C1.65804 2.22064 1.5 2.60218 1.5 3ZM21 1.5H18V3H21V6H22.5V3C22.5 2.60218 22.342 2.22064 22.0607 1.93934C21.7794 1.65804 21.3978 1.5 21 1.5ZM3 21V18H1.5V21C1.5 21.3978 1.65804 21.7794 1.93934 22.0607C2.22064 22.342 2.60218 22.5 3 22.5H6V21H3ZM21 18V21H18V22.5H21C21.3978 22.5 21.7794 22.342 22.0607 22.0607C22.342 21.7794 22.5 21.3978 22.5 21V18H21Z" fill="black"/>
</svg>
