<svg width="24" height="24" viewBox="0 0 24 24" fill="none" xmlns="http://www.w3.org/2000/svg">
<path d="M16.75 14.85C16.4808 14.85 16.2553 14.7588 16.0736 14.5764C15.8918 14.394 15.8006 14.1686 15.8 13.9V10.1C15.8 9.83086 15.8912 9.60539 16.0736 9.42362C16.256 9.24186 16.4814 9.15066 16.75 9.15002H19.6C19.8691 9.15002 20.0949 9.24122 20.2773 9.42362C20.4597 9.60602 20.5506 9.83149 20.55 10.1V11.05H19.125V10.575H17.225V13.425H19.125V12.95H20.55V13.9C20.55 14.1692 20.4588 14.395 20.2764 14.5774C20.094 14.7598 19.8685 14.8507 19.6 14.85H16.75ZM9.62495 14.85V9.15002H13.425C13.6941 9.15002 13.9199 9.24122 14.1023 9.42362C14.2847 9.60602 14.3756 9.83149 14.375 10.1V11.05C14.375 11.3192 14.2838 11.545 14.1014 11.7274C13.919 11.9098 13.6935 12.0007 13.425 12C13.6941 12 13.9199 12.0912 14.1023 12.2736C14.2847 12.456 14.3756 12.6815 14.375 12.95V13.9C14.375 14.1692 14.2838 14.395 14.1014 14.5774C13.919 14.7598 13.6935 14.8507 13.425 14.85H9.62495ZM11.05 11.2875H12.95V10.575H11.05V11.2875ZM11.05 13.425H12.95V12.7125H11.05V13.425ZM3.44995 14.85V10.1C3.44995 9.83086 3.54115 9.60539 3.72355 9.42362C3.90595 9.24186 4.13142 9.15066 4.39995 9.15002H7.24995C7.51912 9.15002 7.7449 9.24122 7.9273 9.42362C8.1097 9.60602 8.20058 9.83149 8.19995 10.1V14.85H6.77495V13.425H4.87495V14.85H3.44995ZM4.87495 12H6.77495V10.575H4.87495V12Z" fill="black"/>
<path d="M1.5 3V6H3V3H6V1.5H3C2.60218 1.5 2.22064 1.65804 1.93934 1.93934C1.65804 2.22064 1.5 2.60218 1.5 3ZM21 1.5H18V3H21V6H22.5V3C22.5 2.60218 22.342 2.22064 22.0607 1.93934C21.7794 1.65804 21.3978 1.5 21 1.5ZM3 21V18H1.5V21C1.5 21.3978 1.65804 21.7794 1.93934 22.0607C2.22064 22.342 2.60218 22.5 3 22.5H6V21H3ZM21 18V21H18V22.5H21C21.3978 22.5 21.7794 22.342 22.0607 22.0607C22.342 21.7794 22.5 21.3978 22.5 21V18H21Z" fill="black"/>
</svg>
